<?xml version="1.0" encoding="UTF-8"?>
<svg width="95px" height="33px" viewBox="0 0 95 33" version="1.1" xmlns="http://www.w3.org/2000/svg" xmlns:xlink="http://www.w3.org/1999/xlink">
    <!-- Generator: sketchtool 52.6 (67491) - http://www.bohemiancoding.com/sketch -->
    <title>5DA08CDC-BCA8-4D7D-9EBA-428567A7C846</title>
    <desc>Created with sketchtool.</desc>
    <g id="Symbols" stroke="none" stroke-width="1" fill="none" fill-rule="evenodd">
        <g id="icon-/-SSL">
            <g>
                <path d="M34.684,21.268 C34.6546665,21.326667 34.6206669,21.3679999 34.582,21.392 C34.5433331,21.4160001 34.4973336,21.428 34.444,21.428 C34.3906664,21.428 34.330667,21.4073335 34.264,21.366 C34.197333,21.3246665 34.1186671,21.2786669 34.028,21.228 C33.9373329,21.1773331 33.8313339,21.1313335 33.71,21.09 C33.5886661,21.0486665 33.4453342,21.028 33.28,21.028 C33.1306659,21.028 33.0006672,21.0459998 32.89,21.082 C32.7793328,21.1180002 32.6860004,21.1679997 32.61,21.232 C32.5339996,21.2960003 32.4773335,21.3726662 32.44,21.462 C32.4026665,21.5513338 32.384,21.6493328 32.384,21.756 C32.384,21.8920007 32.4219996,22.0053329 32.498,22.096 C32.5740004,22.1866671 32.674666,22.2639997 32.8,22.328 C32.925334,22.3920003 33.0679992,22.4493331 33.228,22.5 C33.3880008,22.5506669 33.5513325,22.6046664 33.718,22.662 C33.8846675,22.7193336 34.0479992,22.7859996 34.208,22.862 C34.3680008,22.9380004 34.510666,23.0339994 34.636,23.15 C34.761334,23.2660006 34.8619996,23.4079992 34.938,23.576 C35.0140004,23.7440008 35.052,23.9479988 35.052,24.188 C35.052,24.4493346 35.0073338,24.6939989 34.918,24.922 C34.8286662,25.1500011 34.6980009,25.3486658 34.526,25.518 C34.3539991,25.6873342 34.1440012,25.8206662 33.896,25.918 C33.6479988,26.0153338 33.3640016,26.064 33.044,26.064 C32.8599991,26.064 32.6786676,26.0460002 32.5,26.01 C32.3213324,25.9739998 32.1500008,25.922667 31.986,25.856 C31.8219992,25.789333 31.6686674,25.7093338 31.526,25.616 C31.3833326,25.5226662 31.2560006,25.4186672 31.144,25.304 L31.456,24.788 C31.4853335,24.7506665 31.5206665,24.7193335 31.562,24.694 C31.6033335,24.6686665 31.6493331,24.656 31.7,24.656 C31.766667,24.656 31.8386663,24.6833331 31.916,24.738 C31.9933337,24.7926669 32.0846661,24.853333 32.19,24.92 C32.2953339,24.986667 32.4193326,25.0473331 32.562,25.102 C32.7046674,25.1566669 32.875999,25.184 33.076,25.184 C33.3826682,25.184 33.6199992,25.1113341 33.788,24.966 C33.9560008,24.8206659 34.04,24.6120014 34.04,24.34 C34.04,24.1879992 34.0020004,24.0640005 33.926,23.968 C33.8499996,23.8719995 33.749334,23.7913337 33.624,23.726 C33.498666,23.6606663 33.3560008,23.6053336 33.196,23.56 C33.0359992,23.5146664 32.8733342,23.4653336 32.708,23.412 C32.5426658,23.3586664 32.3800008,23.294667 32.22,23.22 C32.0599992,23.145333 31.917334,23.0480006 31.792,22.928 C31.666666,22.8079994 31.5660004,22.6580009 31.49,22.478 C31.4139996,22.2979991 31.376,22.0760013 31.376,21.812 C31.376,21.6013323 31.4179996,21.396001 31.502,21.196 C31.5860004,20.995999 31.7086659,20.8186674 31.87,20.664 C32.0313341,20.5093326 32.2293322,20.3853338 32.464,20.292 C32.6986678,20.1986662 32.9666652,20.152 33.268,20.152 C33.609335,20.152 33.9239986,20.2053328 34.212,20.312 C34.5000014,20.4186672 34.7453323,20.567999 34.948,20.76 L34.684,21.268 Z M38.776,21.268 C38.7466665,21.326667 38.7126669,21.3679999 38.674,21.392 C38.6353331,21.4160001 38.5893336,21.428 38.536,21.428 C38.4826664,21.428 38.422667,21.4073335 38.356,21.366 C38.289333,21.3246665 38.2106671,21.2786669 38.12,21.228 C38.0293329,21.1773331 37.9233339,21.1313335 37.802,21.09 C37.6806661,21.0486665 37.5373342,21.028 37.372,21.028 C37.2226659,21.028 37.0926672,21.0459998 36.982,21.082 C36.8713328,21.1180002 36.7780004,21.1679997 36.702,21.232 C36.6259996,21.2960003 36.5693335,21.3726662 36.532,21.462 C36.4946665,21.5513338 36.476,21.6493328 36.476,21.756 C36.476,21.8920007 36.5139996,22.0053329 36.59,22.096 C36.6660004,22.1866671 36.766666,22.2639997 36.892,22.328 C37.017334,22.3920003 37.1599992,22.4493331 37.32,22.5 C37.4800008,22.5506669 37.6433325,22.6046664 37.81,22.662 C37.9766675,22.7193336 38.1399992,22.7859996 38.3,22.862 C38.4600008,22.9380004 38.602666,23.0339994 38.728,23.15 C38.853334,23.2660006 38.9539996,23.4079992 39.03,23.576 C39.1060004,23.7440008 39.144,23.9479988 39.144,24.188 C39.144,24.4493346 39.0993338,24.6939989 39.01,24.922 C38.9206662,25.1500011 38.7900009,25.3486658 38.618,25.518 C38.4459991,25.6873342 38.2360012,25.8206662 37.988,25.918 C37.7399988,26.0153338 37.4560016,26.064 37.136,26.064 C36.9519991,26.064 36.7706676,26.0460002 36.592,26.01 C36.4133324,25.9739998 36.2420008,25.922667 36.078,25.856 C35.9139992,25.789333 35.7606674,25.7093338 35.618,25.616 C35.4753326,25.5226662 35.3480006,25.4186672 35.236,25.304 L35.548,24.788 C35.5773335,24.7506665 35.6126665,24.7193335 35.654,24.694 C35.6953335,24.6686665 35.7413331,24.656 35.792,24.656 C35.858667,24.656 35.9306663,24.6833331 36.008,24.738 C36.0853337,24.7926669 36.1766661,24.853333 36.282,24.92 C36.3873339,24.986667 36.5113326,25.0473331 36.654,25.102 C36.7966674,25.1566669 36.967999,25.184 37.168,25.184 C37.4746682,25.184 37.7119992,25.1113341 37.88,24.966 C38.0480008,24.8206659 38.132,24.6120014 38.132,24.34 C38.132,24.1879992 38.0940004,24.0640005 38.018,23.968 C37.9419996,23.8719995 37.841334,23.7913337 37.716,23.726 C37.590666,23.6606663 37.4480008,23.6053336 37.288,23.56 C37.1279992,23.5146664 36.9653342,23.4653336 36.8,23.412 C36.6346658,23.3586664 36.4720008,23.294667 36.312,23.22 C36.1519992,23.145333 36.009334,23.0480006 35.884,22.928 C35.758666,22.8079994 35.6580004,22.6580009 35.582,22.478 C35.5059996,22.2979991 35.468,22.0760013 35.468,21.812 C35.468,21.6013323 35.5099996,21.396001 35.594,21.196 C35.6780004,20.995999 35.8006659,20.8186674 35.962,20.664 C36.1233341,20.5093326 36.3213322,20.3853338 36.556,20.292 C36.7906678,20.1986662 37.0586652,20.152 37.36,20.152 C37.701335,20.152 38.0159986,20.2053328 38.304,20.312 C38.5920014,20.4186672 38.8373323,20.567999 39.04,20.76 L38.776,21.268 Z M40.844,25.112 L43.16,25.112 L43.16,26 L39.768,26 L39.768,20.216 L40.844,20.216 L40.844,25.112 Z M48.696,20.216 L48.696,21.072 L46.132,21.072 L46.132,22.676 L48.152,22.676 L48.152,23.504 L46.132,23.504 L46.132,25.14 L48.696,25.14 L48.696,26 L45.048,26 L45.048,20.216 L48.696,20.216 Z M49.992,20.216 C50.0400002,20.216 50.0799998,20.218 50.112,20.222 C50.1440001,20.226 50.1726665,20.2339999 50.198,20.246 C50.2233334,20.2580001 50.2479999,20.2753332 50.272,20.298 C50.2960001,20.3206668 50.3226665,20.3506665 50.352,20.388 L53.388,24.256 C53.3773333,24.1626662 53.37,24.0713338 53.366,23.982 C53.362,23.8926662 53.36,23.8093337 53.36,23.732 L53.36,20.216 L54.308,20.216 L54.308,26 L53.752,26 C53.6666662,26 53.5960003,25.9866668 53.54,25.96 C53.4839997,25.9333332 53.4293336,25.8853337 53.376,25.816 L50.352,21.964 C50.36,22.0493338 50.366,22.1339996 50.37,22.218 C50.374,22.3020004 50.376,22.3786663 50.376,22.448 L50.376,26 L49.428,26 L49.428,20.216 L49.992,20.216 Z M59.252,24.636 C59.3106669,24.636 59.3613331,24.6586664 59.404,24.704 L59.828,25.164 C59.5933321,25.4546681 59.3046684,25.6773326 58.962,25.832 C58.6193316,25.9866674 58.2080024,26.064 57.728,26.064 C57.2986645,26.064 56.9126684,25.9906674 56.57,25.844 C56.2273316,25.6973326 55.9346679,25.4933346 55.692,25.232 C55.4493321,24.9706654 55.263334,24.6586685 55.134,24.296 C55.004666,23.9333315 54.94,23.5373355 54.94,23.108 C54.94,22.6733312 55.0119993,22.2753351 55.156,21.914 C55.3000007,21.5526649 55.5026653,21.2413346 55.764,20.98 C56.0253346,20.7186654 56.3379982,20.5153341 56.702,20.37 C57.0660018,20.2246659 57.4679978,20.152 57.908,20.152 C58.3373355,20.152 58.712665,20.220666 59.034,20.358 C59.3553349,20.495334 59.6306655,20.6773322 59.86,20.904 L59.5,21.404 C59.4786665,21.4360002 59.4513335,21.4639999 59.418,21.488 C59.3846665,21.5120001 59.3386669,21.524 59.28,21.524 C59.2186663,21.524 59.1560003,21.5000002 59.092,21.452 C59.0279997,21.4039998 58.9466671,21.3520003 58.848,21.296 C58.7493328,21.2399997 58.6246674,21.1880002 58.474,21.14 C58.3233326,21.0919998 58.1320011,21.068 57.9,21.068 C57.6279986,21.068 57.3780011,21.1153329 57.15,21.21 C56.9219988,21.3046671 56.7260008,21.4399991 56.562,21.616 C56.3979992,21.7920009 56.2700004,22.0059987 56.178,22.258 C56.0859995,22.5100013 56.04,22.7933318 56.04,23.108 C56.04,23.433335 56.0859995,23.7226654 56.178,23.976 C56.2700004,24.2293346 56.3946659,24.4426658 56.552,24.616 C56.7093341,24.7893342 56.8946656,24.9219995 57.108,25.014 C57.3213344,25.1060005 57.5506654,25.152 57.796,25.152 C57.9426674,25.152 58.0753327,25.1440001 58.194,25.128 C58.3126672,25.1119999 58.4219995,25.0866668 58.522,25.052 C58.6220005,25.0173332 58.7166662,24.9726669 58.806,24.918 C58.8953338,24.8633331 58.9839995,24.7960004 59.072,24.716 C59.0986668,24.6919999 59.1266665,24.6726667 59.156,24.658 C59.1853335,24.6433333 59.2173331,24.636 59.252,24.636 Z M61.552,23.74 L61.552,26 L60.476,26 L60.476,20.216 L62.24,20.216 C62.6346686,20.216 62.9726652,20.2566663 63.254,20.338 C63.5353347,20.4193337 63.7659991,20.5333326 63.946,20.68 C64.1260009,20.8266674 64.2579996,21.001999 64.342,21.206 C64.4260004,21.410001 64.468,21.6346654 64.468,21.88 C64.468,22.0746676 64.4393336,22.2586658 64.382,22.432 C64.3246664,22.6053342 64.2420005,22.762666 64.134,22.904 C64.0259994,23.045334 63.8926674,23.1693328 63.734,23.276 C63.5753325,23.3826672 63.3946677,23.4679997 63.192,23.532 C63.3280007,23.6093337 63.4453328,23.7199993 63.544,23.864 L64.992,26 L64.024,26 C63.9306662,26 63.8513336,25.9813335 63.786,25.944 C63.7206663,25.9066665 63.6653335,25.8533337 63.62,25.784 L62.404,23.932 C62.3586664,23.8626663 62.3086669,23.8133335 62.254,23.784 C62.199333,23.7546665 62.1186672,23.74 62.012,23.74 L61.552,23.74 Z M61.552,22.968 L62.224,22.968 C62.4266677,22.968 62.6033326,22.9426669 62.754,22.892 C62.9046674,22.8413331 63.0286662,22.7713338 63.126,22.682 C63.2233338,22.5926662 63.2959997,22.4866673 63.344,22.364 C63.3920002,22.2413327 63.416,22.1066674 63.416,21.96 C63.416,21.6666652 63.3193343,21.4413341 63.126,21.284 C62.9326657,21.1266659 62.6373353,21.048 62.24,21.048 L61.552,21.048 L61.552,22.968 Z M68.052,23.752 L68.052,26 L66.976,26 L66.976,23.752 L64.868,20.216 L65.816,20.216 C65.9093338,20.216 65.983333,20.2386664 66.038,20.284 C66.0926669,20.3293336 66.1386665,20.3866663 66.176,20.456 L67.236,22.388 C67.2973336,22.5026672 67.3506664,22.6113328 67.396,22.714 C67.4413335,22.8166672 67.4826665,22.9173328 67.52,23.016 C67.5546668,22.9146662 67.5939998,22.8126672 67.638,22.71 C67.6820002,22.6073328 67.7346663,22.5000006 67.796,22.388 L68.848,20.456 C68.8773335,20.397333 68.921333,20.3426669 68.98,20.292 C69.0386669,20.2413331 69.1133329,20.216 69.204,20.216 L70.156,20.216 L68.052,23.752 Z M71.628,23.964 L71.628,26 L70.552,26 L70.552,20.216 L72.436,20.216 C72.8226686,20.216 73.1573319,20.2613329 73.44,20.352 C73.7226681,20.4426671 73.9559991,20.5693325 74.14,20.732 C74.3240009,20.8946675 74.4599995,21.0893322 74.548,21.316 C74.6360004,21.5426678 74.68,21.7906653 74.68,22.06 C74.68,22.3400014 74.6333338,22.5966655 74.54,22.83 C74.4466662,23.0633345 74.3066676,23.2639992 74.12,23.432 C73.9333324,23.6000008 73.7000014,23.7306662 73.42,23.824 C73.1399986,23.9173338 72.8120019,23.964 72.436,23.964 L71.628,23.964 Z M71.628,23.124 L72.436,23.124 C72.6333343,23.124 72.8053326,23.0993336 72.952,23.05 C73.0986674,23.0006664 73.2199995,22.9300005 73.316,22.838 C73.4120005,22.7459995 73.4839997,22.6340007 73.532,22.502 C73.5800002,22.3699993 73.604,22.2226675 73.604,22.06 C73.604,21.9053326 73.5800002,21.765334 73.532,21.64 C73.4839997,21.514666 73.4120005,21.4080004 73.316,21.32 C73.2199995,21.2319996 73.0986674,21.1646669 72.952,21.118 C72.8053326,21.0713331 72.6333343,21.048 72.436,21.048 L71.628,21.048 L71.628,23.124 Z M79.392,20.216 L79.392,21.1 L77.652,21.1 L77.652,26 L76.576,26 L76.576,21.1 L74.828,21.1 L74.828,20.216 L79.392,20.216 Z M81.088,26 L80.008,26 L80.008,20.216 L81.088,20.216 L81.088,26 Z M87.736,23.108 C87.736,23.5320021 87.665334,23.9246649 87.524,24.286 C87.3826659,24.6473351 87.1840012,24.9599987 86.928,25.224 C86.6719987,25.4880013 86.3640018,25.6939993 86.004,25.842 C85.6439982,25.9900007 85.2453355,26.064 84.808,26.064 C84.3706644,26.064 83.9713351,25.9900007 83.61,25.842 C83.2486648,25.6939993 82.9393346,25.4880013 82.682,25.224 C82.4246653,24.9599987 82.225334,24.6473351 82.084,24.286 C81.9426659,23.9246649 81.872,23.5320021 81.872,23.108 C81.872,22.6839979 81.9426659,22.2913351 82.084,21.93 C82.225334,21.5686649 82.4246653,21.2560013 82.682,20.992 C82.9393346,20.7279987 83.2486648,20.5220007 83.61,20.374 C83.9713351,20.2259993 84.3706644,20.152 84.808,20.152 C85.2453355,20.152 85.6439982,20.2266659 86.004,20.376 C86.3640018,20.5253341 86.6719987,20.731332 86.928,20.994 C87.1840012,21.256668 87.3826659,21.5686649 87.524,21.93 C87.665334,22.2913351 87.736,22.6839979 87.736,23.108 Z M86.632,23.108 C86.632,22.7906651 86.5900004,22.5060013 86.506,22.254 C86.4219995,22.0019987 86.3013341,21.7880009 86.144,21.612 C85.9866658,21.4359991 85.7953344,21.3013338 85.57,21.208 C85.3446655,21.1146662 85.090668,21.068 84.808,21.068 C84.5253319,21.068 84.2706678,21.1146662 84.044,21.208 C83.8173322,21.3013338 83.6246674,21.4359991 83.466,21.612 C83.3073325,21.7880009 83.1853337,22.0019987 83.1,22.254 C83.0146662,22.5060013 82.972,22.7906651 82.972,23.108 C82.972,23.4253349 83.0146662,23.7099987 83.1,23.962 C83.1853337,24.2140013 83.3073325,24.4273325 83.466,24.602 C83.6246674,24.7766675 83.8173322,24.9106662 84.044,25.004 C84.2706678,25.0973338 84.5253319,25.144 84.808,25.144 C85.090668,25.144 85.3446655,25.0973338 85.57,25.004 C85.7953344,24.9106662 85.9866658,24.7766675 86.144,24.602 C86.3013341,24.4273325 86.4219995,24.2140013 86.506,23.962 C86.5900004,23.7099987 86.632,23.4253349 86.632,23.108 Z M88.948,20.216 C88.9960002,20.216 89.0359998,20.218 89.068,20.222 C89.1000001,20.226 89.1286665,20.2339999 89.154,20.246 C89.1793334,20.2580001 89.2039998,20.2753332 89.228,20.298 C89.2520001,20.3206668 89.2786665,20.3506665 89.308,20.388 L92.344,24.256 C92.3333332,24.1626662 92.326,24.0713338 92.322,23.982 C92.3179999,23.8926662 92.316,23.8093337 92.316,23.732 L92.316,20.216 L93.264,20.216 L93.264,26 L92.708,26 C92.6226662,26 92.5520002,25.9866668 92.496,25.96 C92.4399997,25.9333332 92.3853336,25.8853337 92.332,25.816 L89.308,21.964 C89.316,22.0493338 89.3219999,22.1339996 89.326,22.218 C89.33,22.3020004 89.332,22.3786663 89.332,22.448 L89.332,26 L88.384,26 L88.384,20.216 L88.948,20.216 Z" id="SSL-encryption" fill-opacity="0.7" fill="#FDFDFF"></path>
                <path d="M38.368,8.536 C38.309333,8.65333392 38.2413337,8.73599976 38.164,8.784 C38.0866663,8.83200024 37.9946672,8.856 37.888,8.856 C37.7813328,8.856 37.661334,8.81466708 37.528,8.732 C37.394666,8.64933292 37.2373342,8.55733384 37.056,8.456 C36.8746658,8.35466616 36.6626679,8.26266708 36.42,8.18 C36.1773321,8.09733292 35.8906683,8.056 35.56,8.056 C35.2613318,8.056 35.0013344,8.09199964 34.78,8.164 C34.5586656,8.23600036 34.3720008,8.33599936 34.22,8.464 C34.0679992,8.59200064 33.954667,8.74533244 33.88,8.924 C33.805333,9.10266756 33.768,9.2986656 33.768,9.512 C33.768,9.78400136 33.8439992,10.0106658 33.996,10.192 C34.1480008,10.3733342 34.3493321,10.5279994 34.6,10.656 C34.8506679,10.7840006 35.1359984,10.8986662 35.456,11 C35.7760016,11.1013338 36.102665,11.2093328 36.436,11.324 C36.769335,11.4386672 37.0959984,11.5719992 37.416,11.724 C37.7360016,11.8760008 38.0213321,12.0679988 38.272,12.3 C38.5226679,12.5320012 38.7239992,12.8159983 38.876,13.152 C39.0280008,13.4880017 39.104,13.8959976 39.104,14.376 C39.104,14.8986693 39.0146676,15.3879977 38.836,15.844 C38.6573324,16.3000023 38.3960017,16.6973316 38.052,17.036 C37.7079983,17.3746684 37.2880025,17.6413324 36.792,17.836 C36.2959975,18.0306676 35.7280032,18.128 35.088,18.128 C34.7199982,18.128 34.3573351,18.0920004 34,18.02 C33.6426649,17.9479996 33.3000016,17.845334 32.972,17.712 C32.6439984,17.578666 32.3373348,17.4186676 32.052,17.232 C31.7666652,17.0453324 31.5120011,16.8373345 31.288,16.608 L31.912,15.576 C31.970667,15.501333 32.0413329,15.4386669 32.124,15.388 C32.2066671,15.3373331 32.2986662,15.312 32.4,15.312 C32.533334,15.312 32.6773326,15.3666661 32.832,15.476 C32.9866674,15.5853339 33.1693323,15.706666 33.38,15.84 C33.5906677,15.973334 33.8386652,16.0946661 34.124,16.204 C34.4093348,16.3133339 34.751998,16.368 35.152,16.368 C35.7653364,16.368 36.2399983,16.2226681 36.576,15.932 C36.9120017,15.6413319 37.08,15.2240027 37.08,14.68 C37.08,14.3759985 37.0040008,14.128001 36.852,13.936 C36.6999992,13.743999 36.4986679,13.5826673 36.248,13.452 C35.9973321,13.3213327 35.7120016,13.2106671 35.392,13.12 C35.0719984,13.0293329 34.7466683,12.9306672 34.416,12.824 C34.0853317,12.7173328 33.7600016,12.5893341 33.44,12.44 C33.1199984,12.2906659 32.8346679,12.0960012 32.584,11.856 C32.3333321,11.6159988 32.1320008,11.3160018 31.98,10.956 C31.8279992,10.5959982 31.752,10.1520026 31.752,9.624 C31.752,9.20266456 31.8359992,8.792002 32.004,8.392 C32.1720008,7.991998 32.4173317,7.63733488 32.74,7.328 C33.0626683,7.01866512 33.4586643,6.7706676 33.928,6.584 C34.3973357,6.3973324 34.9333303,6.304 35.536,6.304 C36.2186701,6.304 36.8479971,6.4106656 37.424,6.624 C38.0000029,6.8373344 38.4906646,7.13599808 38.896,7.52 L38.368,8.536 Z M48.3908572,6.432 L48.3908572,8.144 L43.2628572,8.144 L43.2628572,11.352 L47.3028572,11.352 L47.3028572,13.008 L43.2628572,13.008 L43.2628572,16.28 L48.3908572,16.28 L48.3908572,18 L41.0948572,18 L41.0948572,6.432 L48.3908572,6.432 Z M58.5497144,15.272 C58.6670483,15.272 58.7683806,15.3173329 58.8537144,15.408 L59.7017144,16.328 C59.2323787,16.9093362 58.6550512,17.3546651 57.9697144,17.664 C57.2843776,17.9733349 56.4617192,18.128 55.5017144,18.128 C54.6430434,18.128 53.8710512,17.9813348 53.1857144,17.688 C52.5003776,17.3946652 51.9150502,16.9866693 51.4297144,16.464 C50.9443786,15.9413307 50.5723824,15.317337 50.3137144,14.592 C50.0550464,13.866663 49.9257144,13.074671 49.9257144,12.216 C49.9257144,11.3466623 50.069713,10.5506703 50.3577144,9.828 C50.6457158,9.10532972 51.0510451,8.48266928 51.5737144,7.96 C52.0963837,7.43733072 52.7217108,7.03066812 53.4497144,6.74 C54.177718,6.44933188 54.98171,6.304 55.8617144,6.304 C56.7203854,6.304 57.4710445,6.44133196 58.1137144,6.716 C58.7563843,6.99066804 59.3070454,7.3546644 59.7657144,7.808 L59.0457144,8.808 C59.0030475,8.87200032 58.9483814,8.92799976 58.8817144,8.976 C58.8150474,9.02400024 58.7230483,9.048 58.6057144,9.048 C58.4830471,9.048 58.357715,9.00000048 58.2297144,8.904 C58.1017138,8.80799952 57.9390487,8.70400056 57.7417144,8.592 C57.5443801,8.47999944 57.2950492,8.37600048 56.9937144,8.28 C56.6923796,8.18399952 56.3097167,8.136 55.8457144,8.136 C55.3017117,8.136 54.8017167,8.23066572 54.3457144,8.42 C53.8897121,8.60933428 53.497716,8.87999824 53.1697144,9.232 C52.8417128,9.58400176 52.5857153,10.0119975 52.4017144,10.516 C52.2177135,11.0200025 52.1257144,11.5866635 52.1257144,12.216 C52.1257144,12.8666699 52.2177135,13.4453308 52.4017144,13.952 C52.5857153,14.4586692 52.8350462,14.8853316 53.1497144,15.232 C53.4643826,15.5786684 53.8350456,15.8439991 54.2617144,16.028 C54.6883832,16.2120009 55.1470453,16.304 55.6377144,16.304 C55.9310492,16.304 56.1963799,16.2880002 56.4337144,16.256 C56.6710489,16.2239998 56.8897134,16.1733337 57.0897144,16.104 C57.2897154,16.0346663 57.4790468,15.9453339 57.6577144,15.836 C57.836382,15.7266661 58.0137135,15.5920008 58.1897144,15.432 C58.243048,15.3839998 58.2990474,15.3453335 58.3577144,15.316 C58.4163814,15.2866665 58.4803807,15.272 58.5497144,15.272 Z M66.3245716,16.264 C66.7405737,16.264 67.11257,16.1946674 67.4405716,16.056 C67.7685732,15.9173326 68.0459038,15.7226679 68.2725716,15.472 C68.4992394,15.2213321 68.672571,14.9173351 68.7925716,14.56 C68.9125722,14.2026649 68.9725716,13.8026689 68.9725716,13.36 L68.9725716,6.432 L71.1245716,6.432 L71.1245716,13.36 C71.1245716,14.0480034 71.013906,14.6839971 70.7925716,15.268 C70.5712372,15.8520029 70.2525737,16.3559979 69.8365716,16.78 C69.4205695,17.2040021 68.9165746,17.5346655 68.3245716,17.772 C67.7325686,18.0093345 67.0659086,18.128 66.3245716,18.128 C65.5832346,18.128 64.9165746,18.0093345 64.3245716,17.772 C63.7325686,17.5346655 63.229907,17.2040021 62.8165716,16.78 C62.4032362,16.3559979 62.085906,15.8520029 61.8645716,15.268 C61.6432372,14.6839971 61.5325716,14.0480034 61.5325716,13.36 L61.5325716,6.432 L63.6845716,6.432 L63.6845716,13.352 C63.6845716,13.7946689 63.744571,14.1946649 63.8645716,14.552 C63.9845722,14.9093351 64.1565705,15.2146654 64.3805716,15.468 C64.6045727,15.7213346 64.88057,15.9173326 65.2085716,16.056 C65.5365732,16.1946674 65.9085695,16.264 66.3245716,16.264 Z M75.8834288,13.48 L75.8834288,18 L73.7314288,18 L73.7314288,6.432 L77.2594288,6.432 C78.0487661,6.432 78.7247593,6.51333252 79.2874288,6.676 C79.8500983,6.83866748 80.311427,7.0666652 80.6714288,7.36 C81.0314306,7.6533348 81.295428,8.00399796 81.4634288,8.412 C81.6314296,8.82000204 81.7154288,9.26933088 81.7154288,9.76 C81.7154288,10.1493353 81.658096,10.5173316 81.5434288,10.864 C81.4287616,11.2106684 81.2634299,11.5253319 81.0474288,11.808 C80.8314277,12.0906681 80.5647637,12.3386656 80.2474288,12.552 C79.9300939,12.7653344 79.5687642,12.9359994 79.1634288,13.064 C79.4354302,13.2186674 79.6700945,13.4399986 79.8674288,13.728 L82.7634288,18 L80.8274288,18 C80.6407612,18 80.4820961,17.962667 80.3514288,17.888 C80.2207615,17.813333 80.1100959,17.7066674 80.0194288,17.568 L77.5874288,13.864 C77.4967617,13.7253326 77.3967627,13.626667 77.2874288,13.568 C77.1780949,13.509333 77.0167632,13.48 76.8034288,13.48 L75.8834288,13.48 Z M75.8834288,11.936 L77.2274288,11.936 C77.6327642,11.936 77.986094,11.8853338 78.2874288,11.784 C78.5887636,11.6826662 78.8367612,11.5426676 79.0314288,11.364 C79.2260964,11.1853324 79.3714283,10.9733346 79.4674288,10.728 C79.5634293,10.4826654 79.6114288,10.2133348 79.6114288,9.92 C79.6114288,9.3333304 79.4180974,8.88266824 79.0314288,8.568 C78.6447602,8.25333176 78.0540994,8.096 77.2594288,8.096 L75.8834288,8.096 L75.8834288,11.936 Z M91.778286,6.432 L91.778286,8.144 L86.650286,8.144 L86.650286,11.352 L90.690286,11.352 L90.690286,13.008 L86.650286,13.008 L86.650286,16.28 L91.778286,16.28 L91.778286,18 L84.482286,18 L84.482286,6.432 L91.778286,6.432 Z" id="Secure-Copy" fill="#141423"></path>
                <g id="ssl">
                    <g id="Group-3" transform="translate(0.675000, 0.687500)">
                        <path d="M25.65,5.25777979 L25.65,21.5505227 C25.65,23.6902134 24.501218,25.6185972 22.6496411,26.5914983 L15.3420409,31.0048535 L15.3161918,31.0184424 C14.5365109,31.42302 13.6804248,31.625 12.825,31.625 C11.9695752,31.625 11.1134891,31.42302 10.3338082,31.0184424 L10.2833123,30.9900293 L3.00096007,26.5914365 C1.14878201,25.6185972 0,23.6901516 0,21.5504609 L0,5.25777979 C0,4.3825332 0.572287011,3.61408276 1.39344673,3.38492505 L12.5268337,0.0413842773 L12.5382554,0.0382958984 C12.6320335,0.0129711914 12.7282162,0 12.825,0 C12.9217838,0 13.0179665,0.0129711914 13.1117446,0.0382958984 L13.1351892,0.045090332 L24.2565533,3.38492505 C25.077713,3.61408276 25.65,4.38247144 25.65,5.25777979 Z" id="Path" stroke="#FFFFFF" fill="#37374B"></path>
                        <path d="M25.1912195,5.95481702 L25.1912195,21.5059798 C25.1912195,23.5482803 24.0851071,25.3888919 22.3023039,26.3175104 L15.2661322,30.5299875 L15.2412432,30.5429578 C14.4905222,30.9291207 13.666234,31.1219074 12.8425825,31.1219074 L12.8425825,0.936350236 C12.9357715,0.936350236 13.0283816,0.94873103 13.1186765,0.972903059 L13.1412502,0.979388237 L23.84953,4.1672071 C24.6401891,4.38593448 25.1912195,5.11934919 25.1912195,5.95481702 Z" id="Path" fill="#141423"></path>
                    </g>
                    <g id="Group-2" transform="translate(5.400000, 9.625000)">
                        <g id="Group" fill="#FFFFFF">
                            <path d="M4.90249051,4.6913625 C4.73851971,4.3555875 4.53434453,4.0948875 4.28996496,3.9084375 C4.04637372,3.7219875 3.77913285,3.5512125 3.48981898,3.3936375 C3.20050511,3.2368875 2.93405255,3.1090125 2.68967299,3.0108375 C2.44529343,2.9118375 2.24111825,2.7938625 2.07793577,2.6544375 C1.91396496,2.5166625 1.83197956,2.3632125 1.83197956,2.1949125 C1.83197956,2.0125875 1.91869489,1.8574875 2.09291387,1.7296125 C2.26792117,1.6017375 2.52885547,1.5382125 2.87808175,1.5382125 C3.20602336,1.5382125 3.5055854,1.6075125 3.7775562,1.7461125 C4.04952701,1.8847125 4.22768759,1.9540125 4.31124964,1.9540125 C4.51305985,1.9540125 4.67230073,1.8500625 4.78739562,1.6429875 C4.90249051,1.4350875 4.96003796,1.2346125 4.96003796,1.0415625 C4.96003796,0.8386125 4.88120584,0.6661875 4.72432993,0.5226375 C4.56745401,0.3799125 4.36485547,0.2767875 4.11732263,0.2132625 C3.86978978,0.1489125 3.64669489,0.1060125 3.44803796,0.0829125 C3.24938102,0.0606375 3.05939562,0.0490875 2.87808175,0.0490875 C2.1386365,0.0490875 1.50719124,0.2404875 0.984534307,0.6241125 C0.461089051,1.0069125 0.200154745,1.5852375 0.200154745,2.3590875 C0.200154745,2.8334625 0.312884672,3.2426625 0.539921168,3.5858625 C0.766169343,3.9290625 1.04365839,4.1930625 1.3716,4.3795125 C1.69954161,4.5651375 2.02511825,4.7334375 2.34990657,4.8827625 C2.67390657,5.0329125 2.94903066,5.1987375 3.17606715,5.3810625 C3.40231533,5.5633875 3.51583358,5.7754125 3.51583358,6.0163125 C3.51583358,6.2572125 3.41492847,6.4378875 3.21232993,6.5583375 C3.01051971,6.6779625 2.77323504,6.7381875 2.50126423,6.7381875 C2.28526423,6.7381875 2.07951241,6.6944625 1.88400876,6.6061875 C1.68850511,6.5170875 1.53714745,6.4197375 1.42914745,6.3116625 C1.32114745,6.2035875 1.20211095,6.1062375 1.0736146,6.0171375 C0.944329927,5.9288625 0.827658394,5.8843125 0.722811679,5.8843125 C0.53440292,5.8843125 0.368855474,5.9866125 0.226169343,6.1912125 C0.0826948905,6.3958125 0.0117459854,6.6004125 0.0117459854,6.8041875 C0.0117459854,7.1696625 0.262432117,7.4980125 0.764592701,7.7892375 C1.26675328,8.0812875 1.85641752,8.2273125 2.53279708,8.2273125 C3.31402336,8.2273125 3.94468029,8.0177625 4.42634453,7.5986625 C4.90722044,7.1795625 5.14844672,6.5938125 5.14844672,5.8405875 C5.14844672,5.4099375 5.06567299,5.0271375 4.90249051,4.6913625 Z" id="Path"></path>
                            <path d="M10.4784438,4.6913625 C10.314473,4.3555875 10.1102978,4.0948875 9.86591825,3.9084375 C9.62232701,3.7219875 9.35508613,3.5512125 9.06577226,3.3936375 C8.77645839,3.2368875 8.51000584,3.1090125 8.26562628,3.0108375 C8.15604964,2.9662875 8.05514453,2.9184375 7.96212263,2.8656375 C7.84702774,2.8021125 7.74375766,2.7311625 7.65388905,2.6544375 C7.48991825,2.5166625 7.40793285,2.3632125 7.40793285,2.1949125 C7.40793285,2.0125875 7.49464818,1.8574875 7.66965547,1.7296125 C7.74848759,1.6710375 7.84623942,1.6256625 7.96212263,1.5951375 C8.10007883,1.5571875 8.26404964,1.5382125 8.45403504,1.5382125 C8.78197664,1.5382125 9.08153869,1.6075125 9.35350949,1.7461125 C9.62548029,1.8847125 9.80364088,1.9540125 9.88720292,1.9540125 C10.0890131,1.9540125 10.248254,1.8500625 10.3633489,1.6429875 C10.4784438,1.4350875 10.5359912,1.2346125 10.5359912,1.0415625 C10.5359912,0.8386125 10.4571591,0.6661875 10.3002832,0.5226375 C10.1434073,0.3799125 9.94080876,0.2767875 9.69327591,0.2132625 C9.44574307,0.1489125 9.22264818,0.1060125 9.02399124,0.0829125 C8.82533431,0.0606375 8.63534891,0.0490875 8.45403504,0.0490875 C8.28454599,0.0490875 8.12057518,0.0589875 7.96212263,0.0796125 C7.43079416,0.1472625 6.96331971,0.3287625 6.56048759,0.6241125 C6.03704234,1.0069125 5.77610803,1.5852375 5.77610803,2.3590875 C5.77610803,2.8334625 5.88883796,3.2426625 6.11587445,3.5858625 C6.34212263,3.9290625 6.61961168,4.1930625 6.94755328,4.3795125 C7.27549489,4.5651375 7.60107153,4.7334375 7.92585985,4.8827625 C7.93768467,4.8885375 7.95029781,4.8943125 7.96212263,4.9000875 C8.2703562,5.0452875 8.5344438,5.2053375 8.75202044,5.3810625 C8.97905693,5.5633875 9.09178686,5.7754125 9.09178686,6.0163125 C9.09178686,6.2572125 8.99088175,6.4378875 8.78907153,6.5583375 C8.58647299,6.6779625 8.34918832,6.7381875 8.07721752,6.7381875 C8.03858978,6.7381875 7.99996204,6.7365375 7.96212263,6.7340625 C7.78790365,6.7208625 7.61999124,6.6787875 7.45996204,6.6061875 C7.26445839,6.5170875 7.11310073,6.4197375 7.00510073,6.3116625 C6.89710073,6.2035875 6.77806423,6.1062375 6.64956788,6.0171375 C6.52028321,5.9288625 6.40361168,5.8843125 6.29876496,5.8843125 C6.1103562,5.8843125 5.94480876,5.9866125 5.80212263,6.1912125 C5.65864818,6.3958125 5.58769927,6.6004125 5.58769927,6.8041875 C5.58769927,7.1696625 5.8383854,7.4980125 6.34054599,7.7892375 C6.8064438,8.0598375 7.34723212,8.2050375 7.96212263,8.2248375 C8.01099854,8.2264875 8.05908613,8.2273125 8.10875036,8.2273125 C8.88997664,8.2273125 9.5214219,8.0177625 10.0022978,7.5986625 C10.4831737,7.1795625 10.7244,6.5938125 10.7244,5.8405875 C10.7244,5.4099375 10.6424146,5.0271375 10.4784438,4.6913625 Z" id="Path"></path>
                        </g>
                        <path d="M16.0868894,6.94028316 C16.0114823,6.78976055 15.9076198,6.71492444 15.7753017,6.71492444 L13.6232834,6.71492444 L13.6232834,0.529805591 C13.6232834,0.357172309 13.5507219,0.225358719 13.4055989,0.135215231 C13.2611872,0.0450717437 13.0876087,0 12.886286,0 C12.6849634,0 12.5120962,0.0450717437 12.3676846,0.135215231 C12.2225615,0.225358719 12.15,0.357172309 12.15,0.529805591 L12.15,7.70828867 C12.15,7.88092195 12.2133135,8.01443636 12.3392291,8.1088319 C12.4651446,8.20237703 12.6159588,8.25 12.7923829,8.25 L15.7753017,8.25 C15.9076198,8.25 16.0114823,8.17431349 16.0868894,8.02379087 C16.1622965,7.87326826 16.2,7.69298128 16.2,7.48207954 C16.2,7.27194316 16.1622965,7.09080578 16.0868894,6.94028316 Z" id="Path" fill="#DCE6EB"></path>
                        <path d="M17.55,11 C17.55,11.7599167 17.0075261,12.375 16.3391207,12.375 L1.21087928,12.375 C0.54247392,12.375 0,11.7599167 0,11 C0,10.241 0.54247392,9.625 1.21087928,9.625 L16.3391207,9.625 C17.0075261,9.625 17.55,10.241 17.55,11 Z" id="Path" fill="#FFFFFF"></path>
                        <g id="Group" transform="translate(8.100000, 0.000000)" fill="#DCE6EB">
                            <path d="M0.540990826,1.54845302 C0.332050459,1.54845302 0.151720183,1.56755537 0,1.60576007 L0,0.0800637584 C0.174261468,0.0593003356 0.354591743,0.0493338926 0.540990826,0.0493338926 C0.740394495,0.0493338926 0.949334862,0.0609614094 1.16781193,0.083385906 C1.38628899,0.10664094 1.6316422,0.149828859 1.90387156,0.214610738 C2.17610092,0.278562081 2.39891284,0.382379195 2.57144037,0.526062081 C2.74396789,0.670575503 2.83066514,0.844157718 2.83066514,1.0484698 C2.83066514,1.24281544 2.76737615,1.44463591 2.64079817,1.65393121 C2.51422018,1.86239597 2.33909174,1.96704362 2.11714679,1.96704362 C2.02524771,1.96704362 1.82931193,1.89727852 1.53020642,1.75774832 C1.23110092,1.61821812 0.901651376,1.54845302 0.540990826,1.54845302 Z" id="Path"></path>
                            <path d="M3.03795826,5.87978607 C3.03795826,6.63806628 2.77266468,7.22774748 2.24381147,7.64966023 C1.71495826,8.07157299 1.0205133,8.28252936 0.161343578,8.28252936 C0.106724312,8.28252936 0.0538389908,8.28169883 8.66972477e-05,8.28003775 L8.66972477e-05,6.77925755 C0.0417013761,6.78174916 0.0841830275,6.78341023 0.126664679,6.78341023 C0.425770183,6.78341023 0.686728899,6.72278104 0.909540826,6.60235319 C1.13148578,6.4810948 1.24245826,6.29920721 1.24245826,6.05669044 C1.24245826,5.81417366 1.11848119,5.60072567 0.868793119,5.41717701 C0.629508716,5.24027265 0.339072936,5.07914849 8.66972477e-05,4.93297399 L8.66972477e-05,2.88486997 C0.10238945,2.93802433 0.213361927,2.98619547 0.333871101,3.03104446 C0.602632569,3.12987836 0.895669266,3.25861158 1.21384817,3.41641359 C1.53202706,3.57504614 1.82593073,3.74696728 2.09382523,3.93466862 C2.3625867,4.12236997 2.58713257,4.38481963 2.76746284,4.72284815 C2.94779312,5.06087668 3.03795826,5.44624581 3.03795826,5.87978607 Z" id="Path"></path>
                            <path d="M9.42416422,11.0715554 C9.42416422,11.7600705 8.84155872,12.3173607 8.1237055,12.3173607 L0,12.3173607 L0,9.82566695 L8.1237055,9.82566695 C8.84155872,9.82575 9.42416422,10.3838708 9.42416422,11.0715554 Z" id="Path"></path>
                        </g>
                    </g>
                </g>
            </g>
        </g>
    </g>
</svg>